<?xml version="1.0" encoding="utf-8"?>
<!-- Generator: Adobe Illustrator 18.1.0, SVG Export Plug-In . SVG Version: 6.00 Build 0)  -->
<svg version="1.1" id="Camada_1" xmlns="http://www.w3.org/2000/svg" xmlns:xlink="http://www.w3.org/1999/xlink" x="0px" y="0px"
	 viewBox="0 0 15 26" enable-background="new 0 0 15 26" xml:space="preserve">
<g id="XMLID_1_">
	<g>
		<polygon fill="#FFA100" points="11.2,5.7 4.9,5.7 4.9,5.7 4.9,4.6 5.6,4.6 5.6,4.6 10.6,4.6 10.6,4.6 11.2,4.6 		"/>
		<polygon fill="#FFA100" points="10.1,23.4 10.1,21 10.5,21 11.1,21 11.1,23.4 10.5,23.4 10.5,23.4 		"/>
		<polygon fill="#FFA100" points="10.6,4.6 5.6,4.6 5.6,3.8 5.8,3.8 5.8,3.9 10.5,3.9 10.5,3.8 10.6,3.8 		"/>
		<polygon fill="#FFA100" points="11.7,17.4 9.9,17.4 9.7,17.4 9.7,13.6 10.1,13.6 10.1,13.6 10.1,14.2 10.7,14.2 10.7,14.8 
			11,14.8 11,16 11.7,16 		"/>
		<polygon fill="#FFA100" points="9.8,24.2 9.8,24.1 8.7,24.1 8.7,23.4 10.1,23.4 10.1,23.4 10.5,23.4 10.5,24.2 		"/>
		<rect x="10.1" y="23.4" fill="#FFA100" width="0.4" height="0"/>
		<polygon fill="#646587" points="10.5,3.8 5.8,3.8 5.8,3.1 6.2,3.1 6.2,3.3 10.3,3.3 10.3,3.1 10.5,3.1 		"/>
		<polygon fill="#FFA100" points="8.7,21 8.7,20.2 10.5,20.2 10.5,21 10.1,21 		"/>
		<rect x="8.7" y="24.1" fill="#FFA100" width="1" height="0.1"/>
		<polygon fill="#B7B7EF" points="9.1,19 6.5,19 6.5,17.5 6.9,17.5 6.9,17.4 6.9,12.8 6.9,12.8 8.8,12.8 8.8,13.6 9.7,13.6 
			9.7,13.6 9.7,17.4 9.7,17.6 9.1,17.6 		"/>
		<polygon fill="#515574" points="9.7,13.6 8.8,13.6 8.8,12.8 10.2,12.8 10.2,12.8 10.2,13.6 10.1,13.6 9.7,13.6 		"/>
		<rect x="8.3" y="0" fill="#7A0000" width="1.1" height="1.2"/>
		<rect x="8.3" y="1.2" width="1.1" height="0.3"/>
		<rect x="7.7" y="2.5" width="2.3" height="0.1"/>
		<rect x="7.1" y="25.5" fill="#FFA100" width="1.4" height="0.2"/>
		<polygon fill="#FF0001" points="7.7,1.2 7.2,1.2 7.2,0 8.3,0 8.3,1.2 		"/>
		<rect x="7.7" y="1.9" width="2.3" height="0.6"/>
		<polygon points="8.3,1.5 9.4,1.5 9.4,1.2 10.1,1.2 10.1,1.9 10,1.9 7.7,1.9 7.7,1.5 		"/>
		<rect x="7.7" y="1.2" width="0.6" height="0.3"/>
		<rect x="6.7" y="1.9" fill="#8A0002" width="1" height="0.6"/>
		<polygon fill="#8A0002" points="7.7,1.5 7.7,1.9 6.7,1.9 6.7,1.2 7.2,1.2 7.2,1.5 		"/>
		<rect x="7.2" y="1.2" fill="#8A0002" width="0.5" height="0.3"/>
		<polygon fill="#9394C2" points="10.3,3.1 6.2,3.1 6.2,2.5 6.3,2.5 6.3,2.6 6.7,2.6 7.7,2.6 10,2.6 10,2.5 10.3,2.5 		"/>
		<rect x="7.1" y="25.7" fill="#FFA100" width="1.4" height="0.4"/>
		<rect x="6.7" y="2.5" fill="#8A0002" width="1" height="0.1"/>
		<rect x="6.2" y="3.1" fill="#646587" width="4.1" height="0.1"/>
		<rect x="5.8" y="3.8" fill="#FFA100" width="4.7" height="0.1"/>
		<polygon fill="#FFA100" points="7,20.2 7,21 5.7,21 5.3,21 5.3,20.2 		"/>
		<polygon fill="#FFA100" points="4.8,17.4 3.6,17.4 3.6,15.9 4.2,15.9 4.2,15.3 4.8,15.3 4.8,14.8 5.7,14.8 5.7,12.8 6.9,12.8 
			6.9,12.8 6.9,17.4 6.9,17.4 		"/>
		<rect x="6.3" y="2.5" width="0.3" height="0.1"/>
		<polygon points="6.7,1.9 6.7,2.5 6.3,2.5 6.3,1.9 6.4,1.9 		"/>
		<rect x="6.4" y="1.2" width="0.3" height="0.7"/>
		<rect x="5.6" y="4.6" fill="#FFA100" width="5.1" height="0.1"/>
		<polygon fill="#B7B7EF" points="6.2,9.4 6.8,9.4 6.8,7.7 6.1,7.7 6.1,6.3 10.1,6.3 10.1,12 10.1,12.1 6.1,12.1 		"/>
		<polygon fill="#515574" points="6.9,12.8 5.7,12.8 5,12.8 5,12.1 5.8,12.1 6.1,12.1 10.1,12.1 10.9,12.1 10.9,12.8 10.2,12.8 
			8.8,12.8 		"/>
		<polygon fill="#FFA100" points="6.4,25 9.3,25 9.3,25.7 8.5,25.7 8.5,25.5 7.1,25.5 7.1,25.7 6.4,25.7 		"/>
		<rect x="6.4" y="24.8" fill="#FFA100" width="2.9" height="0.1"/>
		<rect x="5.7" y="24.1" fill="#FFA100" width="1.2" height="0.1"/>
		<polygon fill="#515574" points="6,18.8 4.8,18.8 4.8,17.5 4.8,17.4 6.9,17.4 6.9,17.4 6.9,17.5 6.5,17.5 6.5,19 9.1,19 9.1,17.6 
			9.7,17.6 9.7,17.4 9.9,17.4 9.9,17.4 9.9,18.3 11,18.3 11,19.2 9.9,19.2 9.9,19.8 6,19.8 		"/>
		<polygon fill="#FFFFFF" points="5.8,6.3 6.1,6.3 6.1,7.7 6.8,7.7 6.8,9.4 6.2,9.4 6.1,12.1 5.8,12.1 5.8,12 		"/>
		<polygon fill="#FFA100" points="5.7,25 5.7,24.2 6.9,24.2 6.9,24.1 8.7,24.1 8.7,24.2 9.8,24.2 9.8,25 9.3,25 9.3,24.8 6.4,24.8 
			6.4,25 		"/>
		<polygon fill="#EE4227" points="4.9,5.7 11.2,5.7 11.2,6.3 10.1,6.3 6.1,6.3 5.8,6.3 4.9,6.3 4.9,5.7 		"/>
		<polygon fill="#FFA100" points="5.7,21 5.7,23.4 5.1,23.4 5.1,23.4 4.6,23.4 4.6,21 5.3,21 		"/>
		<polygon fill="#FFA100" points="6.9,24.1 5.7,24.1 5.7,24.2 5.1,24.2 5.1,23.4 5.7,23.4 5.7,23.4 6.9,23.4 		"/>
		<rect x="5.1" y="23.4" fill="#FFA100" width="0.5" height="0"/>
	</g>
	<g>
	</g>
</g>
</svg>
